<?xml version="1.0" standalone="no"?>
<!DOCTYPE svg PUBLIC "-//W3C//DTD SVG 20010904//EN"
 "http://www.w3.org/TR/2001/REC-SVG-20010904/DTD/svg10.dtd">
<svg version="1.0" xmlns="http://www.w3.org/2000/svg"
 width="400.000000pt" height="400.000000pt" viewBox="0 0 400.000000 400.000000"
 preserveAspectRatio="xMidYMid meet">
<metadata>
Created by potrace 1.11, written by Peter Selinger 2001-2013
</metadata>
<g transform="translate(0.000000,400.000000) scale(0.100000,-0.100000)"
fill="#000000" stroke="none">
<path d="M2565 3594 c-38 -8 -74 -20 -79 -25 -6 -5 -17 -9 -25 -9 -20 0 -120
-52 -180 -93 -51 -35 -133 -114 -178 -172 -61 -79 -133 -231 -149 -315 -3 -14
-9 -43 -14 -65 -10 -43 -7 -251 4 -300 33 -143 109 -299 193 -393 163 -184
367 -273 607 -267 110 2 153 10 251 43 45 15 162 76 175 91 3 3 23 19 45 35
115 85 227 250 272 399 92 309 14 622 -212 858 -91 95 -254 187 -380 214 -68
15 -260 14 -330 -1z m285 -284 c105 -29 194 -95 258 -193 18 -26 32 -49 32
-51 0 -2 8 -21 17 -42 9 -22 18 -45 19 -53 1 -7 8 -36 15 -65 16 -65 16 -185
0 -256 -50 -220 -183 -367 -366 -406 -213 -45 -414 58 -509 261 -42 88 -57
149 -61 250 -8 168 53 336 159 440 59 58 155 115 193 115 10 0 24 4 30 8 19
12 161 7 213 -8z"/>
<path d="M459 3598 c-1 -4 -1 -1575 0 -1610 l1 -26 453 2 c439 2 454 3 535 25
193 54 316 189 326 357 11 197 -69 346 -228 424 -60 30 -77 50 -40 50 8 0 40
23 70 52 165 156 176 429 23 603 -34 38 -104 89 -141 101 -12 4 -30 10 -38 13
-16 5 -959 14 -961 9z m845 -298 c59 -38 89 -101 87 -182 -1 -33 -8 -76 -17
-94 -18 -38 -64 -80 -103 -96 -15 -6 -125 -11 -258 -12 l-233 -2 -1 36 c-1 53
-1 332 0 356 1 22 3 22 241 21 l241 0 43 -27z m34 -654 c87 -45 138 -164 111
-262 -15 -51 -63 -109 -110 -131 -41 -19 -63 -21 -301 -21 -185 0 -258 4 -259
12 -1 13 -1 373 0 401 1 20 8 20 264 19 223 -1 267 -4 295 -18z"/>
<path d="M755 1023 l0 -598 117 -1 118 -2 2 393 3 393 80 -156 c44 -86 112
-217 152 -291 l71 -135 64 -1 c56 -1 65 1 74 19 5 12 50 98 98 191 49 94 111
213 139 265 27 52 52 98 56 102 3 4 5 -170 4 -386 l-2 -393 117 1 117 1 0 598
0 597 -125 0 -125 0 -48 -93 c-26 -50 -83 -159 -126 -242 -44 -82 -101 -192
-127 -242 -26 -51 -50 -93 -53 -93 -3 0 -30 46 -59 103 -62 118 -173 329 -246
469 l-51 98 -125 0 -125 0 0 -597z"/>
<path d="M2102 1603 c6 -20 243 -626 258 -658 5 -11 50 -125 100 -254 50 -129
95 -242 100 -251 8 -15 25 -18 103 -18 89 0 95 1 105 23 6 12 80 202 165 421
86 220 187 479 225 577 l70 177 -123 0 -122 0 -107 -302 c-59 -167 -120 -339
-136 -383 -16 -44 -39 -111 -53 -149 l-24 -69 -41 114 c-23 63 -95 265 -161
449 l-119 335 -122 3 c-113 2 -122 1 -118 -15z"/>
</g>
</svg>
